<?xml version="1.0" encoding="UTF-8"?>
<svg xmlns="http://www.w3.org/2000/svg" xmlns:xlink="http://www.w3.org/1999/xlink" width="42px" height="42px" viewBox="0 0 42 42" version="1.1">
<title>364000000000070002900000007001234567899123456789812345678971234A
BCDEFGHIJ12345123456789912345123456789|</title>
<g id="canvas" >
<rect x="0" y="0" width="42px" height="42px" fill="white" />
<g id="barcode" fill="black">
<rect x="1" y="1" width="1px" height="1px" />
<rect x="3" y="1" width="1px" height="1px" />
<rect x="5" y="1" width="1px" height="1px" />
<rect x="7" y="1" width="1px" height="1px" />
<rect x="9" y="1" width="1px" height="1px" />
<rect x="11" y="1" width="1px" height="1px" />
<rect x="13" y="1" width="1px" height="1px" />
<rect x="15" y="1" width="1px" height="1px" />
<rect x="17" y="1" width="1px" height="1px" />
<rect x="19" y="1" width="1px" height="1px" />
<rect x="21" y="1" width="1px" height="1px" />
<rect x="23" y="1" width="1px" height="1px" />
<rect x="25" y="1" width="1px" height="1px" />
<rect x="27" y="1" width="1px" height="1px" />
<rect x="29" y="1" width="1px" height="1px" />
<rect x="31" y="1" width="1px" height="1px" />
<rect x="33" y="1" width="1px" height="1px" />
<rect x="35" y="1" width="1px" height="1px" />
<rect x="37" y="1" width="1px" height="1px" />
<rect x="39" y="1" width="1px" height="1px" />
<rect x="1" y="2" width="2px" height="1px" />
<rect x="5" y="2" width="1px" height="1px" />
<rect x="10" y="2" width="1px" height="1px" />
<rect x="20" y="2" width="2px" height="1px" />
<rect x="23" y="2" width="1px" height="1px" />
<rect x="27" y="2" width="1px" height="1px" />
<rect x="32" y="2" width="2px" height="1px" />
<rect x="35" y="2" width="6px" height="1px" />
<rect x="1" y="3" width="2px" height="1px" />
<rect x="4" y="3" width="2px" height="1px" />
<rect x="8" y="3" width="1px" height="1px" />
<rect x="13" y="3" width="1px" height="1px" />
<rect x="16" y="3" width="4px" height="1px" />
<rect x="21" y="3" width="1px" height="1px" />
<rect x="24" y="3" width="1px" height="1px" />
<rect x="26" y="3" width="3px" height="1px" />
<rect x="33" y="3" width="2px" height="1px" />
<rect x="37" y="3" width="2px" height="1px" />
<rect x="1" y="4" width="1px" height="1px" />
<rect x="3" y="4" width="1px" height="1px" />
<rect x="8" y="4" width="1px" height="1px" />
<rect x="11" y="4" width="1px" height="1px" />
<rect x="14" y="4" width="3px" height="1px" />
<rect x="18" y="4" width="1px" height="1px" />
<rect x="20" y="4" width="3px" height="1px" />
<rect x="27" y="4" width="1px" height="1px" />
<rect x="30" y="4" width="1px" height="1px" />
<rect x="35" y="4" width="2px" height="1px" />
<rect x="38" y="4" width="3px" height="1px" />
<rect x="1" y="5" width="1px" height="1px" />
<rect x="3" y="5" width="1px" height="1px" />
<rect x="6" y="5" width="1px" height="1px" />
<rect x="11" y="5" width="1px" height="1px" />
<rect x="15" y="5" width="1px" height="1px" />
<rect x="17" y="5" width="3px" height="1px" />
<rect x="21" y="5" width="2px" height="1px" />
<rect x="24" y="5" width="6px" height="1px" />
<rect x="31" y="5" width="2px" height="1px" />
<rect x="38" y="5" width="1px" height="1px" />
<rect x="1" y="6" width="1px" height="1px" />
<rect x="6" y="6" width="1px" height="1px" />
<rect x="9" y="6" width="1px" height="1px" />
<rect x="11" y="6" width="1px" height="1px" />
<rect x="13" y="6" width="3px" height="1px" />
<rect x="18" y="6" width="4px" height="1px" />
<rect x="24" y="6" width="3px" height="1px" />
<rect x="28" y="6" width="1px" height="1px" />
<rect x="30" y="6" width="3px" height="1px" />
<rect x="34" y="6" width="5px" height="1px" />
<rect x="40" y="6" width="1px" height="1px" />
<rect x="1" y="7" width="1px" height="1px" />
<rect x="4" y="7" width="1px" height="1px" />
<rect x="9" y="7" width="5px" height="1px" />
<rect x="16" y="7" width="1px" height="1px" />
<rect x="18" y="7" width="2px" height="1px" />
<rect x="21" y="7" width="2px" height="1px" />
<rect x="25" y="7" width="2px" height="1px" />
<rect x="29" y="7" width="1px" height="1px" />
<rect x="32" y="7" width="2px" height="1px" />
<rect x="37" y="7" width="1px" height="1px" />
<rect x="1" y="8" width="1px" height="1px" />
<rect x="3" y="8" width="3px" height="1px" />
<rect x="7" y="8" width="1px" height="1px" />
<rect x="12" y="8" width="2px" height="1px" />
<rect x="16" y="8" width="2px" height="1px" />
<rect x="20" y="8" width="4px" height="1px" />
<rect x="25" y="8" width="4px" height="1px" />
<rect x="37" y="8" width="2px" height="1px" />
<rect x="40" y="8" width="1px" height="1px" />
<rect x="1" y="9" width="1px" height="1px" />
<rect x="3" y="9" width="1px" height="1px" />
<rect x="5" y="9" width="5px" height="1px" />
<rect x="11" y="9" width="1px" height="1px" />
<rect x="13" y="9" width="3px" height="1px" />
<rect x="17" y="9" width="2px" height="1px" />
<rect x="21" y="9" width="1px" height="1px" />
<rect x="25" y="9" width="2px" height="1px" />
<rect x="28" y="9" width="2px" height="1px" />
<rect x="31" y="9" width="3px" height="1px" />
<rect x="35" y="9" width="1px" height="1px" />
<rect x="38" y="9" width="1px" height="1px" />
<rect x="1" y="10" width="2px" height="1px" />
<rect x="4" y="10" width="1px" height="1px" />
<rect x="8" y="10" width="4px" height="1px" />
<rect x="13" y="10" width="6px" height="1px" />
<rect x="20" y="10" width="3px" height="1px" />
<rect x="24" y="10" width="1px" height="1px" />
<rect x="27" y="10" width="2px" height="1px" />
<rect x="31" y="10" width="1px" height="1px" />
<rect x="33" y="10" width="1px" height="1px" />
<rect x="37" y="10" width="4px" height="1px" />
<rect x="1" y="11" width="1px" height="1px" />
<rect x="5" y="11" width="2px" height="1px" />
<rect x="8" y="11" width="2px" height="1px" />
<rect x="14" y="11" width="1px" height="1px" />
<rect x="16" y="11" width="3px" height="1px" />
<rect x="21" y="11" width="2px" height="1px" />
<rect x="24" y="11" width="1px" height="1px" />
<rect x="27" y="11" width="1px" height="1px" />
<rect x="34" y="11" width="1px" height="1px" />
<rect x="37" y="11" width="1px" height="1px" />
<rect x="39" y="11" width="1px" height="1px" />
<rect x="1" y="12" width="2px" height="1px" />
<rect x="6" y="12" width="3px" height="1px" />
<rect x="10" y="12" width="1px" height="1px" />
<rect x="12" y="12" width="5px" height="1px" />
<rect x="18" y="12" width="6px" height="1px" />
<rect x="26" y="12" width="2px" height="1px" />
<rect x="29" y="12" width="5px" height="1px" />
<rect x="36" y="12" width="1px" height="1px" />
<rect x="38" y="12" width="1px" height="1px" />
<rect x="40" y="12" width="1px" height="1px" />
<rect x="1" y="13" width="1px" height="1px" />
<rect x="3" y="13" width="1px" height="1px" />
<rect x="5" y="13" width="1px" height="1px" />
<rect x="7" y="13" width="2px" height="1px" />
<rect x="10" y="13" width="3px" height="1px" />
<rect x="15" y="13" width="1px" height="1px" />
<rect x="17" y="13" width="3px" height="1px" />
<rect x="21" y="13" width="2px" height="1px" />
<rect x="26" y="13" width="1px" height="1px" />
<rect x="28" y="13" width="3px" height="1px" />
<rect x="33" y="13" width="1px" height="1px" />
<rect x="36" y="13" width="3px" height="1px" />
<rect x="1" y="14" width="1px" height="1px" />
<rect x="4" y="14" width="3px" height="1px" />
<rect x="8" y="14" width="5px" height="1px" />
<rect x="14" y="14" width="1px" height="1px" />
<rect x="18" y="14" width="5px" height="1px" />
<rect x="25" y="14" width="1px" height="1px" />
<rect x="27" y="14" width="2px" height="1px" />
<rect x="31" y="14" width="5px" height="1px" />
<rect x="38" y="14" width="3px" height="1px" />
<rect x="1" y="15" width="1px" height="1px" />
<rect x="5" y="15" width="1px" height="1px" />
<rect x="7" y="15" width="3px" height="1px" />
<rect x="11" y="15" width="2px" height="1px" />
<rect x="14" y="15" width="2px" height="1px" />
<rect x="17" y="15" width="1px" height="1px" />
<rect x="19" y="15" width="1px" height="1px" />
<rect x="21" y="15" width="2px" height="1px" />
<rect x="25" y="15" width="1px" height="1px" />
<rect x="28" y="15" width="4px" height="1px" />
<rect x="33" y="15" width="1px" height="1px" />
<rect x="35" y="15" width="2px" height="1px" />
<rect x="39" y="15" width="1px" height="1px" />
<rect x="1" y="16" width="1px" height="1px" />
<rect x="3" y="16" width="3px" height="1px" />
<rect x="8" y="16" width="1px" height="1px" />
<rect x="11" y="16" width="2px" height="1px" />
<rect x="14" y="16" width="1px" height="1px" />
<rect x="16" y="16" width="1px" height="1px" />
<rect x="19" y="16" width="4px" height="1px" />
<rect x="24" y="16" width="1px" height="1px" />
<rect x="26" y="16" width="2px" height="1px" />
<rect x="32" y="16" width="1px" height="1px" />
<rect x="34" y="16" width="3px" height="1px" />
<rect x="38" y="16" width="1px" height="1px" />
<rect x="40" y="16" width="1px" height="1px" />
<rect x="1" y="17" width="3px" height="1px" />
<rect x="5" y="17" width="1px" height="1px" />
<rect x="9" y="17" width="1px" height="1px" />
<rect x="11" y="17" width="2px" height="1px" />
<rect x="17" y="17" width="2px" height="1px" />
<rect x="21" y="17" width="8px" height="1px" />
<rect x="31" y="17" width="4px" height="1px" />
<rect x="37" y="17" width="1px" height="1px" />
<rect x="1" y="18" width="3px" height="1px" />
<rect x="5" y="18" width="2px" height="1px" />
<rect x="8" y="18" width="3px" height="1px" />
<rect x="12" y="18" width="1px" height="1px" />
<rect x="15" y="18" width="1px" height="1px" />
<rect x="20" y="18" width="4px" height="1px" />
<rect x="25" y="18" width="4px" height="1px" />
<rect x="31" y="18" width="2px" height="1px" />
<rect x="34" y="18" width="1px" height="1px" />
<rect x="37" y="18" width="1px" height="1px" />
<rect x="39" y="18" width="2px" height="1px" />
<rect x="1" y="19" width="1px" height="1px" />
<rect x="3" y="19" width="6px" height="1px" />
<rect x="12" y="19" width="2px" height="1px" />
<rect x="15" y="19" width="1px" height="1px" />
<rect x="17" y="19" width="2px" height="1px" />
<rect x="21" y="19" width="3px" height="1px" />
<rect x="25" y="19" width="1px" height="1px" />
<rect x="28" y="19" width="1px" height="1px" />
<rect x="30" y="19" width="1px" height="1px" />
<rect x="33" y="19" width="1px" height="1px" />
<rect x="37" y="19" width="3px" height="1px" />
<rect x="1" y="20" width="40px" height="1px" />
<rect x="1" y="21" width="1px" height="1px" />
<rect x="3" y="21" width="1px" height="1px" />
<rect x="5" y="21" width="1px" height="1px" />
<rect x="7" y="21" width="1px" height="1px" />
<rect x="9" y="21" width="1px" height="1px" />
<rect x="11" y="21" width="1px" height="1px" />
<rect x="13" y="21" width="1px" height="1px" />
<rect x="15" y="21" width="1px" height="1px" />
<rect x="17" y="21" width="1px" height="1px" />
<rect x="19" y="21" width="1px" height="1px" />
<rect x="21" y="21" width="1px" height="1px" />
<rect x="23" y="21" width="1px" height="1px" />
<rect x="25" y="21" width="1px" height="1px" />
<rect x="27" y="21" width="1px" height="1px" />
<rect x="29" y="21" width="1px" height="1px" />
<rect x="31" y="21" width="1px" height="1px" />
<rect x="33" y="21" width="1px" height="1px" />
<rect x="35" y="21" width="1px" height="1px" />
<rect x="37" y="21" width="1px" height="1px" />
<rect x="39" y="21" width="1px" height="1px" />
<rect x="1" y="22" width="1px" height="1px" />
<rect x="3" y="22" width="9px" height="1px" />
<rect x="13" y="22" width="4px" height="1px" />
<rect x="20" y="22" width="2px" height="1px" />
<rect x="24" y="22" width="1px" height="1px" />
<rect x="27" y="22" width="1px" height="1px" />
<rect x="29" y="22" width="1px" height="1px" />
<rect x="31" y="22" width="1px" height="1px" />
<rect x="34" y="22" width="7px" height="1px" />
<rect x="1" y="23" width="1px" height="1px" />
<rect x="3" y="23" width="1px" height="1px" />
<rect x="5" y="23" width="2px" height="1px" />
<rect x="8" y="23" width="1px" height="1px" />
<rect x="12" y="23" width="1px" height="1px" />
<rect x="14" y="23" width="2px" height="1px" />
<rect x="17" y="23" width="1px" height="1px" />
<rect x="21" y="23" width="1px" height="1px" />
<rect x="23" y="23" width="1px" height="1px" />
<rect x="27" y="23" width="1px" height="1px" />
<rect x="29" y="23" width="1px" height="1px" />
<rect x="32" y="23" width="1px" height="1px" />
<rect x="35" y="23" width="1px" height="1px" />
<rect x="38" y="23" width="2px" height="1px" />
<rect x="1" y="24" width="2px" height="1px" />
<rect x="4" y="24" width="5px" height="1px" />
<rect x="10" y="24" width="1px" height="1px" />
<rect x="12" y="24" width="1px" height="1px" />
<rect x="14" y="24" width="2px" height="1px" />
<rect x="18" y="24" width="4px" height="1px" />
<rect x="23" y="24" width="3px" height="1px" />
<rect x="27" y="24" width="4px" height="1px" />
<rect x="33" y="24" width="1px" height="1px" />
<rect x="36" y="24" width="2px" height="1px" />
<rect x="39" y="24" width="2px" height="1px" />
<rect x="1" y="25" width="1px" height="1px" />
<rect x="5" y="25" width="1px" height="1px" />
<rect x="7" y="25" width="1px" height="1px" />
<rect x="9" y="25" width="2px" height="1px" />
<rect x="12" y="25" width="1px" height="1px" />
<rect x="14" y="25" width="5px" height="1px" />
<rect x="21" y="25" width="5px" height="1px" />
<rect x="27" y="25" width="1px" height="1px" />
<rect x="31" y="25" width="7px" height="1px" />
<rect x="39" y="25" width="1px" height="1px" />
<rect x="1" y="26" width="1px" height="1px" />
<rect x="3" y="26" width="2px" height="1px" />
<rect x="9" y="26" width="1px" height="1px" />
<rect x="11" y="26" width="1px" height="1px" />
<rect x="13" y="26" width="1px" height="1px" />
<rect x="16" y="26" width="1px" height="1px" />
<rect x="20" y="26" width="2px" height="1px" />
<rect x="23" y="26" width="2px" height="1px" />
<rect x="26" y="26" width="1px" height="1px" />
<rect x="28" y="26" width="2px" height="1px" />
<rect x="38" y="26" width="3px" height="1px" />
<rect x="1" y="27" width="6px" height="1px" />
<rect x="8" y="27" width="1px" height="1px" />
<rect x="12" y="27" width="1px" height="1px" />
<rect x="16" y="27" width="1px" height="1px" />
<rect x="19" y="27" width="1px" height="1px" />
<rect x="21" y="27" width="1px" height="1px" />
<rect x="26" y="27" width="2px" height="1px" />
<rect x="31" y="27" width="1px" height="1px" />
<rect x="33" y="27" width="2px" height="1px" />
<rect x="36" y="27" width="1px" height="1px" />
<rect x="1" y="28" width="2px" height="1px" />
<rect x="5" y="28" width="1px" height="1px" />
<rect x="7" y="28" width="5px" height="1px" />
<rect x="13" y="28" width="2px" height="1px" />
<rect x="16" y="28" width="3px" height="1px" />
<rect x="20" y="28" width="2px" height="1px" />
<rect x="23" y="28" width="1px" height="1px" />
<rect x="25" y="28" width="1px" height="1px" />
<rect x="31" y="28" width="2px" height="1px" />
<rect x="37" y="28" width="2px" height="1px" />
<rect x="40" y="28" width="1px" height="1px" />
<rect x="1" y="29" width="2px" height="1px" />
<rect x="7" y="29" width="3px" height="1px" />
<rect x="12" y="29" width="3px" height="1px" />
<rect x="21" y="29" width="3px" height="1px" />
<rect x="26" y="29" width="1px" height="1px" />
<rect x="28" y="29" width="2px" height="1px" />
<rect x="31" y="29" width="1px" height="1px" />
<rect x="36" y="29" width="2px" height="1px" />
<rect x="39" y="29" width="1px" height="1px" />
<rect x="1" y="30" width="2px" height="1px" />
<rect x="6" y="30" width="1px" height="1px" />
<rect x="10" y="30" width="1px" height="1px" />
<rect x="13" y="30" width="1px" height="1px" />
<rect x="15" y="30" width="2px" height="1px" />
<rect x="20" y="30" width="2px" height="1px" />
<rect x="23" y="30" width="1px" height="1px" />
<rect x="27" y="30" width="1px" height="1px" />
<rect x="29" y="30" width="1px" height="1px" />
<rect x="34" y="30" width="2px" height="1px" />
<rect x="38" y="30" width="3px" height="1px" />
<rect x="1" y="31" width="3px" height="1px" />
<rect x="5" y="31" width="5px" height="1px" />
<rect x="11" y="31" width="1px" height="1px" />
<rect x="13" y="31" width="2px" height="1px" />
<rect x="16" y="31" width="1px" height="1px" />
<rect x="21" y="31" width="3px" height="1px" />
<rect x="25" y="31" width="1px" height="1px" />
<rect x="27" y="31" width="2px" height="1px" />
<rect x="30" y="31" width="2px" height="1px" />
<rect x="34" y="31" width="6px" height="1px" />
<rect x="1" y="32" width="1px" height="1px" />
<rect x="3" y="32" width="1px" height="1px" />
<rect x="5" y="32" width="2px" height="1px" />
<rect x="8" y="32" width="2px" height="1px" />
<rect x="16" y="32" width="1px" height="1px" />
<rect x="18" y="32" width="1px" height="1px" />
<rect x="20" y="32" width="2px" height="1px" />
<rect x="23" y="32" width="2px" height="1px" />
<rect x="26" y="32" width="1px" height="1px" />
<rect x="29" y="32" width="3px" height="1px" />
<rect x="33" y="32" width="1px" height="1px" />
<rect x="35" y="32" width="1px" height="1px" />
<rect x="37" y="32" width="2px" height="1px" />
<rect x="40" y="32" width="1px" height="1px" />
<rect x="1" y="33" width="3px" height="1px" />
<rect x="5" y="33" width="1px" height="1px" />
<rect x="7" y="33" width="2px" height="1px" />
<rect x="11" y="33" width="2px" height="1px" />
<rect x="16" y="33" width="3px" height="1px" />
<rect x="21" y="33" width="1px" height="1px" />
<rect x="26" y="33" width="5px" height="1px" />
<rect x="34" y="33" width="1px" height="1px" />
<rect x="37" y="33" width="2px" height="1px" />
<rect x="1" y="34" width="1px" height="1px" />
<rect x="6" y="34" width="3px" height="1px" />
<rect x="10" y="34" width="2px" height="1px" />
<rect x="13" y="34" width="4px" height="1px" />
<rect x="18" y="34" width="6px" height="1px" />
<rect x="26" y="34" width="1px" height="1px" />
<rect x="30" y="34" width="1px" height="1px" />
<rect x="33" y="34" width="1px" height="1px" />
<rect x="35" y="34" width="2px" height="1px" />
<rect x="38" y="34" width="1px" height="1px" />
<rect x="40" y="34" width="1px" height="1px" />
<rect x="1" y="35" width="1px" height="1px" />
<rect x="6" y="35" width="2px" height="1px" />
<rect x="9" y="35" width="1px" height="1px" />
<rect x="11" y="35" width="3px" height="1px" />
<rect x="16" y="35" width="2px" height="1px" />
<rect x="21" y="35" width="3px" height="1px" />
<rect x="25" y="35" width="2px" height="1px" />
<rect x="30" y="35" width="1px" height="1px" />
<rect x="33" y="35" width="1px" height="1px" />
<rect x="36" y="35" width="2px" height="1px" />
<rect x="1" y="36" width="1px" height="1px" />
<rect x="3" y="36" width="1px" height="1px" />
<rect x="6" y="36" width="3px" height="1px" />
<rect x="10" y="36" width="6px" height="1px" />
<rect x="17" y="36" width="2px" height="1px" />
<rect x="20" y="36" width="3px" height="1px" />
<rect x="25" y="36" width="2px" height="1px" />
<rect x="28" y="36" width="3px" height="1px" />
<rect x="33" y="36" width="3px" height="1px" />
<rect x="37" y="36" width="4px" height="1px" />
<rect x="1" y="37" width="3px" height="1px" />
<rect x="6" y="37" width="1px" height="1px" />
<rect x="8" y="37" width="3px" height="1px" />
<rect x="13" y="37" width="1px" height="1px" />
<rect x="15" y="37" width="1px" height="1px" />
<rect x="18" y="37" width="2px" height="1px" />
<rect x="21" y="37" width="1px" height="1px" />
<rect x="23" y="37" width="1px" height="1px" />
<rect x="28" y="37" width="1px" height="1px" />
<rect x="30" y="37" width="2px" height="1px" />
<rect x="36" y="37" width="3px" height="1px" />
<rect x="1" y="38" width="1px" height="1px" />
<rect x="4" y="38" width="1px" height="1px" />
<rect x="7" y="38" width="2px" height="1px" />
<rect x="13" y="38" width="2px" height="1px" />
<rect x="16" y="38" width="6px" height="1px" />
<rect x="23" y="38" width="3px" height="1px" />
<rect x="27" y="38" width="2px" height="1px" />
<rect x="30" y="38" width="1px" height="1px" />
<rect x="34" y="38" width="1px" height="1px" />
<rect x="40" y="38" width="1px" height="1px" />
<rect x="1" y="39" width="3px" height="1px" />
<rect x="6" y="39" width="1px" height="1px" />
<rect x="11" y="39" width="1px" height="1px" />
<rect x="13" y="39" width="1px" height="1px" />
<rect x="18" y="39" width="2px" height="1px" />
<rect x="21" y="39" width="1px" height="1px" />
<rect x="23" y="39" width="2px" height="1px" />
<rect x="33" y="39" width="1px" height="1px" />
<rect x="38" y="39" width="2px" height="1px" />
<rect x="1" y="40" width="40px" height="1px" />

</g></g>
</svg>
