<?xml version="1.0" encoding="UTF-8"?>
<svg xmlns="http://www.w3.org/2000/svg" xmlns:xlink="http://www.w3.org/1999/xlink" width="178px" height="40px" viewBox="0 0 178 40" version="1.1">
<title>PD325270157BR</title>
<g id="canvas" >
<rect x="0" y="0" width="178px" height="40px" fill="white" />
<g id="barcode" fill="black">
<rect x="0" y="0" width="2px" height="40px" />
<rect x="3" y="0" width="1px" height="40px" />
<rect x="6" y="0" width="1px" height="40px" />
<rect x="11" y="0" width="3px" height="40px" />
<rect x="15" y="0" width="3px" height="40px" />
<rect x="19" y="0" width="2px" height="40px" />
<rect x="22" y="0" width="1px" height="40px" />
<rect x="24" y="0" width="2px" height="40px" />
<rect x="29" y="0" width="1px" height="40px" />
<rect x="33" y="0" width="2px" height="40px" />
<rect x="37" y="0" width="1px" height="40px" />
<rect x="39" y="0" width="3px" height="40px" />
<rect x="44" y="0" width="2px" height="40px" />
<rect x="48" y="0" width="3px" height="40px" />
<rect x="53" y="0" width="1px" height="40px" />
<rect x="55" y="0" width="2px" height="40px" />
<rect x="58" y="0" width="3px" height="40px" />
<rect x="63" y="0" width="1px" height="40px" />
<rect x="66" y="0" width="2px" height="40px" />
<rect x="70" y="0" width="3px" height="40px" />
<rect x="75" y="0" width="1px" height="40px" />
<rect x="77" y="0" width="3px" height="40px" />
<rect x="81" y="0" width="2px" height="40px" />
<rect x="84" y="0" width="3px" height="40px" />
<rect x="88" y="0" width="1px" height="40px" />
<rect x="91" y="0" width="3px" height="40px" />
<rect x="95" y="0" width="2px" height="40px" />
<rect x="99" y="0" width="1px" height="40px" />
<rect x="102" y="0" width="3px" height="40px" />
<rect x="107" y="0" width="2px" height="40px" />
<rect x="110" y="0" width="2px" height="40px" />
<rect x="113" y="0" width="3px" height="40px" />
<rect x="118" y="0" width="1px" height="40px" />
<rect x="121" y="0" width="3px" height="40px" />
<rect x="125" y="0" width="2px" height="40px" />
<rect x="128" y="0" width="3px" height="40px" />
<rect x="132" y="0" width="1px" height="40px" />
<rect x="136" y="0" width="1px" height="40px" />
<rect x="138" y="0" width="2px" height="40px" />
<rect x="143" y="0" width="2px" height="40px" />
<rect x="148" y="0" width="1px" height="40px" />
<rect x="150" y="0" width="3px" height="40px" />
<rect x="154" y="0" width="3px" height="40px" />
<rect x="158" y="0" width="2px" height="40px" />
<rect x="161" y="0" width="1px" height="40px" />
<rect x="165" y="0" width="2px" height="40px" />
<rect x="170" y="0" width="3px" height="40px" />
<rect x="174" y="0" width="1px" height="40px" />
<rect x="176" y="0" width="2px" height="40px" />

</g></g>
</svg>
