<?xml version="1.0" encoding="UTF-8" standalone="no"?>
<!-- Created with Inkscape (http://www.inkscape.org/) -->

<svg
   xmlns:dc="http://purl.org/dc/elements/1.1/"
   xmlns:cc="http://creativecommons.org/ns#"
   xmlns:rdf="http://www.w3.org/1999/02/22-rdf-syntax-ns#"
   xmlns:svg="http://www.w3.org/2000/svg"
   xmlns="http://www.w3.org/2000/svg"
   xmlns:sodipodi="http://sodipodi.sourceforge.net/DTD/sodipodi-0.dtd"
   xmlns:inkscape="http://www.inkscape.org/namespaces/inkscape"
   width="77.084999"
   height="52.088001"
   viewBox="0 0 77.084995 52.088002"
   id="svg3887"
   version="1.1"
   inkscape:version="0.91 r13725"
   sodipodi:docname="Chancela SEDEX.svg">
  <defs
     id="defs3889" />
  <sodipodi:namedview
     id="base"
     pagecolor="#ffffff"
     bordercolor="#666666"
     borderopacity="1.0"
     inkscape:pageopacity="0.0"
     inkscape:pageshadow="2"
     inkscape:zoom="5.6"
     inkscape:cx="34.416941"
     inkscape:cy="23.138274"
     inkscape:document-units="px"
     inkscape:current-layer="layer1"
     showgrid="false"
     units="px"
     inkscape:window-width="1600"
     inkscape:window-height="863"
     inkscape:window-x="0"
     inkscape:window-y="0"
     inkscape:window-maximized="1" />
  <metadata
     id="metadata3892">
    <rdf:RDF>
      <cc:Work
         rdf:about="">
        <dc:format>image/svg+xml</dc:format>
        <dc:type
           rdf:resource="http://purl.org/dc/dcmitype/StillImage" />
        <dc:title></dc:title>
      </cc:Work>
    </rdf:RDF>
  </metadata>
  <g
     inkscape:label="Camada 1"
     inkscape:groupmode="layer"
     id="layer1"
     transform="translate(0,-1000.2742)">
    <g
       id="g3917"
       transform="translate(-298.60036,565.38457)">
      <path
         inkscape:connector-curvature="0"
         id="path456"
         style="fill:#24282b;fill-opacity:1;fill-rule:evenodd;stroke:none"
         d="m 364.12252,480.37652 c 0,0 0.64109,-0.65774 0.64109,-0.65774 l -1.28295,-0.65773 c -0.64109,0 -0.64109,0 -0.64109,0 l 1.28295,1.31547 z m -1.92482,1.3234 c 0,0 0,0 0.64187,-0.66566 l -1.92482,-0.65774 c 0,0 -0.64109,0 -0.64109,0.65774 l 1.28295,0.66566 0.64109,0 z m -4.50848,0 0,0 1.92404,1.31548 c 0,0 0,0 0.6604,0 l -1.94335,-1.31548 c 0,0 0,0 -0.64109,0 z m 8.35734,-2.63887 1.28295,-1.31548 1.28295,-0.65774 0.64109,-1.31547 1.28296,-0.65774 0.64186,-1.33133 0.64109,-1.3234 0.64186,-0.65773 0.64109,-1.31548 0.6604,-0.65774 0,-0.65774 0,-0.65773 0.64186,0 0,-0.65774 0,-0.65774 0.64109,-0.65774 0,-0.65773 0,-0.65774 0,-0.65774 0,-0.68151 0.63955,-0.65774 0,-0.65774 0,-0.65773 0,-0.65774 0,-1.31548 -0.63955,-1.31547 0,-1.31548 -0.64109,-1.31548 0,-1.31547 -0.64186,-1.33925 -0.6604,-1.31548 -0.64109,-0.65773 -0.64186,-0.65774 -1.28295,0 0,0 0.64186,1.31547 0.64109,0.65774 0.64186,1.33925 0.64109,1.31548 0.6604,1.31547 0,1.31548 0,0.65774 0.64186,1.31547 0,1.31548 0,0.65774 0,0.65773 0,0.65774 -0.64186,0.65774 0,0.68151 0,0.65774 0,0.65774 0,0 -0.6604,0.65773 0,0.65774 0,0.65774 -0.64109,0.65774 0,0.65773 -0.64186,0.65774 -0.64109,1.31548 -0.64186,0.65774 -0.64109,1.31547 -0.64187,0.66566 -1.28218,1.33133 -0.64186,0.65774 -1.28295,1.31547 -1.28295,0.65774 1.28295,1.31548 z m -0.64109,-35.61294 -1.28295,-0.65774 -1.28295,-1.31547 -1.28296,-0.65774 -1.28295,-0.65774 -1.94335,-0.65774 -1.28295,-0.65774 -1.92404,-0.65773 -1.28295,-0.65774 -1.92405,-0.65774 -1.92481,-0.65774 -1.28295,0 -1.92404,-0.65773 -1.94336,0 -1.92404,0 -1.92481,-0.66567 -1.92404,0 -1.92405,0 -1.92481,0 -1.92404,0 -1.94335,0.66567 -1.92405,0 -1.92481,0 -1.92404,0.65773 -1.28295,0 -1.92482,0.65774 -1.92404,0.65774 -1.28295,0.65774 -1.94335,0.65773 -1.28295,0.65774 -1.92405,0.65774 -1.28295,0.65774 -1.28295,0.65774 -1.28295,1.31547 -1.28295,0.65774 -1.28296,1.33925 -1.28295,0.65774 -0.64109,1.31547 -0.64147,0 1.92442,0 0.64109,0 0.64187,-1.31547 1.28295,-0.65774 1.28295,-0.65774 1.28295,-1.33925 1.28295,-0.65774 1.28218,-0.65773 1.92482,-0.65774 1.28295,-0.65774 1.30149,-0.65774 1.92481,-0.65774 1.92404,-0.65773 1.28296,0 1.92404,-0.65774 1.92481,0 1.28295,-0.65774 1.92405,0 1.94335,0 1.92404,0 1.92481,-0.65774 1.92405,0.65774 1.92404,0 1.92481,0 1.92404,0 1.30149,0.65774 1.92482,0 1.92404,0.65774 1.28295,0 1.92404,0.65773 1.28295,0.65774 1.92482,0.65774 1.28295,0.65774 1.92404,0.65774 1.30149,0.65773 1.28295,0.65774 1.28296,1.33925 1.28295,0.65774 1.28295,0.65774 0.64186,1.31547 0.64109,0 1.92404,0 -0.64109,0 -0.64109,-1.31547 -1.28295,-0.65774 -1.28295,-1.33925 z m -62.95641,7.25889 -0.6414,0.65774 -0.64147,0.65773 -0.6414,1.31548 -0.64148,1.33925 0,1.31547 -0.64147,1.31548 0,1.31548 -0.64143,1.31547 0,1.31548 0,0.65774 0,0.65773 0,0.65774 0.64143,0.65774 0,0.68151 0,0.65774 0,0.65774 0,0.65773 0.64147,0 0,0.65774 0,0.65774 0,0.65774 0.64148,1.31547 0.6414,0.65774 0.64147,1.31548 0.6414,0.65773 0.64148,1.3234 0.64147,1.33133 1.30173,0.65774 0.64147,0.65773 1.28295,1.31548 0.64109,0.65774 0.64187,-1.31548 -0.64187,-0.65774 -0.64109,-0.65773 -1.28295,-0.65774 -0.64147,-1.33133 -0.66033,-0.66566 -0.6414,-1.31547 -0.64147,-0.65774 -0.64148,-1.31548 -0.6414,-0.65774 -0.64147,-1.31547 0,-0.65774 -0.6414,-1.31547 0,-1.31548 0,0 0,-0.68151 -0.64148,-0.65774 0,-0.65774 0,-0.65773 0,-0.65774 0,-1.31548 0.64148,-1.31547 0,-0.65774 0,-1.31548 0.6414,-1.31547 0.64147,-1.31548 0.6414,-1.33925 0.64148,-0.65774 0.64147,-1.31547 0,0 -1.28295,0 z m 7.7161,27.69631 -1.28295,0.65774 c 0,0.65773 0,0.65773 0.64186,0.65773 l 1.28295,-0.65773 c 0,-0.65774 -0.64186,-0.65774 -0.64186,-0.65774 z m 1.92481,1.31547 -1.28295,1.31548 c 0.64109,0 0.64109,0 0.64109,0 l 1.92481,-0.65774 c -0.64186,0 -0.64186,-0.65774 -1.28295,-0.65774 z m 1.28295,2.63888 c 0,0 0.64109,0 0.64109,0 l 1.28296,-0.65774 0,0 c 0,-0.66566 -0.64187,-0.66566 -0.64187,-0.66566 l -1.28218,1.3234 z m 38.5434,1.31548 c 0,0.65773 0.64109,1.31547 2.56513,1.31547 0,-0.65774 1.28296,-1.31547 1.28296,-2.63095 -0.64109,-0.65774 -1.28296,-0.65774 -1.92404,-0.65774 l -1.28296,0 c 0,0 -0.64109,0 -0.64109,0 0,-0.66566 0.64109,-1.3234 0.64109,-1.3234 1.28296,0 1.28296,0.65774 1.28296,0.65774 l 1.28295,-0.65774 c -0.64187,-0.65774 -1.28295,-1.31547 -2.56591,-0.65774 -1.28295,0.65774 -1.28295,1.31548 -1.28295,1.98114 0,1.31548 1.28295,1.31548 1.92404,0.65774 l 0.64187,0 c 0.64108,0 0.64108,0 0.64108,0.65774 0.64187,0.65774 0,0.65774 -0.64108,0.65774 -0.64187,0.65773 -1.28296,0 -1.28296,0 l -0.64109,0 z m -5.1318,0 c 0,-1.31548 0.64109,-1.97322 1.28295,-1.97322 0.64109,0 1.28295,0 1.28295,1.31548 0.64109,1.31547 0,1.97321 -0.64186,1.97321 -0.64109,0 -1.28295,0 -1.92404,-1.31547 z m -0.64187,0 c 0,2.6468 1.92482,2.6468 2.56591,1.98906 0.64186,0 2.5659,-0.67359 1.92481,-2.6468 -0.64186,-2.63888 -2.5659,-2.63888 -3.20776,-1.98114 -0.64109,0 -1.94258,0.66566 -1.28296,2.63888 z m -1.30149,-2.63888 -1.28295,0.66566 0.64186,4.62002 1.28296,0 -0.64187,-5.28568 z m -1.92404,0.66566 -3.84885,0 0.64109,5.27775 3.20776,-0.65773 0,-0.65774 -2.5659,0 0,-1.33133 2.5659,0 0,-0.65773 -2.5659,0 0,-1.31548 2.5659,0 0,-0.65774 z m -7.69771,1.97322 0,-1.31548 1.28295,0 c 0.64186,0 0.64186,0.65774 0.64186,0.65774 0,0.65774 0,0.65774 -0.64186,0.65774 l -1.28295,0 z m -1.28295,3.30453 1.28295,0 0,-1.98906 0.64186,0 c 1.28295,0 1.28295,0 1.28295,0.67359 0,0.65774 0,0.65774 0,1.31547 l 1.28218,0 0,-0.65773 c -0.64109,0 -0.64109,0 -0.64109,-0.65774 0,-1.33133 0,-1.33133 -0.64109,-1.33133 0.64109,0 1.28218,-0.65773 1.28218,-1.31547 0,-0.65774 -0.64109,-1.31548 -1.92404,-1.31548 l -2.5659,0 0,5.27775 z m -3.8674,-3.30453 0,-1.31548 1.28296,0 c 0.64109,0 0.64109,0.65774 0.64109,0.65774 0,0.65774 0,0.65774 -0.64109,0.65774 l -1.28296,0 z m -1.28295,2.6468 1.28295,0 0,-1.98907 1.28296,0 c 0.64109,0 0.64109,0.65774 0.64109,1.33133 0,0.65774 0,0.65774 0,0.65774 l 0.6604,0.65773 0,-0.65773 c 0,0 0,0 0,-0.65774 0,-1.33133 0,-1.33133 0,-1.33133 0,0 0.64186,-0.65773 0.64186,-1.31547 0,-0.65774 0,-1.31548 -1.30226,-1.31548 l -2.56514,-0.66566 -0.64186,5.28568 z m -4.48994,-3.30454 c 0.64109,-1.31548 1.28295,-1.98114 1.92404,-1.31548 0.64186,0 1.28295,0.65774 0.64186,1.97322 0,1.31547 -0.64186,1.31547 -1.28295,1.31547 -0.64186,0 -1.28295,-0.65774 -1.28295,-1.97321 z m -0.64187,-0.65774 c -0.64109,2.63095 0.64187,3.30454 1.28296,3.30454 0.64186,0 2.5659,0 3.20776,-1.98906 0.64109,-2.63888 -1.28295,-3.29662 -1.92481,-3.29662 -0.64109,0 -2.56591,0 -2.56591,1.98114 z m -0.64109,-0.65774 c 0,-0.66566 -0.64186,-1.98114 -1.92404,-2.63887 -1.28295,0 -2.5659,0.65773 -2.5659,1.97321 -0.6604,1.98114 0,2.63888 1.28295,3.29661 1.28295,0.65774 1.92404,0 2.56513,-1.31547 l -1.28218,0 c 0,0.65774 -0.64186,0.65774 -1.28295,0.65774 -0.64186,-0.65774 -0.64186,-1.31548 -0.64186,-1.97322 0.64186,-1.3234 1.28295,-1.98114 1.92481,-1.3234 0.64109,0 0.64109,0.65774 0.64109,0.65774 l 1.28295,0.66566 z m 19.26205,-35.59709 8.35811,0 0.64109,0 3.20699,0 1.28296,3.28869 2.5659,-3.28869 3.2263,0 -3.86739,5.26191 1.92404,5.94341 -3.20699,0 -1.28295,-3.28869 -3.207,3.28869 -2.5659,0 -1.28295,0 -7.71625,0 1.92404,-11.20532 z m 8.9992,0.65774 -0.64109,1.97322 -5.79221,0 0,1.31547 5.15035,0 -0.64109,2.63095 -5.15035,0 -0.64186,1.99699 5.79221,0 0,1.31547 3.84808,-4.62793 -1.92404,-4.60417 z m -16.69614,1.97322 -1.28295,5.94341 0.64109,0 c 0.64186,0 1.28295,0 1.92481,0 0,-0.65774 0.64109,-0.65774 0.64109,-1.33925 0,0 0.64186,-0.65774 0.64186,-1.31548 0,-1.31547 0,-1.97321 0,-2.63095 -0.64186,-0.65773 -1.28295,-0.65773 -1.92481,-0.65773 l -0.64109,0 z m -3.2263,-2.63096 5.15034,0 c 1.28295,0 1.92404,0 2.56591,0.65774 0,0 0.64109,0.65774 1.28295,1.31548 0,0 0,0.65774 0,1.31547 0,0.65774 0,1.31548 0,2.63095 0,0.65774 -0.64186,1.99699 -0.64186,2.65473 -0.64109,0.65774 -1.28296,0.65774 -1.92405,1.31547 0,0.65774 -0.64109,0.65774 -1.28295,0.65774 -0.64109,0.65774 -1.28295,0.65774 -1.92404,0.65774 l -5.15035,0 1.92405,-11.20532 z m -9.62176,0 8.97989,0 -0.64109,2.63096 -5.1318,0 -0.64109,1.31547 5.1318,0 -0.64186,2.63095 -5.13181,0 0,1.99699 5.77367,0 -0.64186,2.63095 -8.97989,0 1.92404,-11.20532 z m -11.5651,7.23512 3.20776,0 c 0,0.68151 0,0.68151 0,1.33925 0,0.65774 0.64109,0.65774 1.28218,0.65774 0.64187,0 0.64187,0 1.28296,-0.65774 0,0 0.64186,0 0.64186,-0.65774 0,0 0,-0.68151 -0.64186,-0.68151 0,0 -0.64109,-0.65774 -1.28296,-0.65774 -1.28218,0 -2.56513,-0.65774 -2.56513,-1.31547 -0.64186,-0.65774 -1.28295,-1.31548 -0.64186,-1.97322 0,-0.65773 0,-1.31547 0.64186,-1.97321 0.64109,0 0.64109,-0.65774 1.92404,-0.65774 0.64109,-0.65774 1.28296,-0.65774 2.56591,-0.65774 1.28295,0 1.94335,0 2.58444,0.65774 0.64186,0.65774 1.28295,1.31548 1.28295,2.63095 l -3.2263,0 c 0,-0.65773 0,-0.65773 -0.64109,-0.65773 0,-0.65774 -0.64186,-0.65774 -0.64186,-0.65774 -0.64109,0 -0.64109,0 -1.28296,0 0,0.65774 0,0.65774 0,0.65774 0,0.65773 0,0.65773 0,0.65773 0,0 0.64187,0.65774 0.64187,0.65774 1.92404,0 2.5659,0.65774 3.2263,0.65774 0.64109,0.65774 0.64109,0.65774 1.28295,1.31547 0,0.65774 0,1.31548 0,1.31548 0,1.33925 -0.64186,1.99699 -1.28295,1.99699 0,0.65773 -0.6604,1.31547 -1.94335,1.31547 -0.64186,0.65774 -1.28295,0.65774 -2.56591,0.65774 -1.92404,0 -2.5659,0 -3.20699,-0.65774 -0.64186,-1.31547 -0.64186,-1.97321 -0.64186,-3.31246 z" />
      <g
         id="g458"
         transform="matrix(0.77239734,0,0,-0.79245521,297.95896,750.39771)">
        <g
           id="g460">
          <text
             id="text462"
             style="font-variant:normal;font-weight:normal;font-size:7.49860001px;font-family:Arial;-inkscape-font-specification:Arial;writing-mode:lr-tb;fill:#24211d;fill-opacity:1;fill-rule:nonzero;stroke:none"
             transform="matrix(1,0,0,-1,10.82,356.54)">
            <tspan
               id="tspan464"
               sodipodi:role="line"
               y="0"
               x="0 4.1692214 8.3009501 12.470172 16.6019 18.25909 22.428312 26.560041 30.729263 34.860992 37.358025 42.337097 47.316166 48.973358 53.974922 58.938995 60.596188 65.597755">0000/2002-DR/XX/YY</tspan>
          </text>
        </g>
      </g>
      <g
         id="g466"
         transform="matrix(0.77239734,0,0,-0.79245521,297.95896,750.39771)">
        <g
           id="g468">
          <text
             id="text470"
             style="font-variant:normal;font-weight:bold;font-size:9.15950012px;font-family:Arial;-inkscape-font-specification:'Arial Bold';writing-mode:lr-tb;fill:#24211d;fill-opacity:1;fill-rule:nonzero;stroke:none"
             transform="matrix(1,0,0,-1,34.928,347.38)">
            <tspan
               id="tspan472"
               sodipodi:role="line"
               y="0"
               x="0 6.6314778 9.1228619 11.614246 16.597013 22.404137 25.719875">Cliente</tspan>
          </text>
        </g>
      </g>
    </g>
  </g>
</svg>
